<?xml version="1.0" encoding="utf-8"?>
<!-- Generator: Adobe Illustrator 25.2.1, SVG Export Plug-In . SVG Version: 6.00 Build 0)  -->
<svg version="1.1" id="blobSvg" xmlns="http://www.w3.org/2000/svg" xmlns:xlink="http://www.w3.org/1999/xlink" x="0px" y="0px"
	 viewBox="0 0 595.3 500" style="enable-background:new 0 0 595.3 500;" xml:space="preserve">
<style type="text/css">
	.st0{fill:url(#blob_1_);}
</style>
<linearGradient id="blob_1_" gradientUnits="userSpaceOnUse" x1="0.4527" y1="670.4269" x2="0.4527" y2="669.1556" gradientTransform="matrix(350.2823 0 0 -330.2029 149.2378 221413.0781)">
	<stop  offset="0" style="stop-color:#FF5F6D"/>
	<stop  offset="1" style="stop-color:#FFC371"/>
</linearGradient>
<path id="blob" class="st0" d="M476,370.8C407.3,428,340.1,456.4,274.5,456s-116.3-29-151.9-85.8S76.8,239.2,92,147.7
	S161.7,21,255.4,42.1s171,67,232,137.3S544.6,313.6,476,370.8z"/>
<path d="M348.1,282.4v-13.7l16.7-9.2c0.3-0.2,0.6-0.3,0.8-0.5c8.1-6.7,12.7-16.6,12.7-27.1v-11h2.5c9.7,0,17.6-7.9,17.6-17.6
	c0-5.7-2.8-10.7-7-14c1.2-5.5,1.9-12,1.9-18.8c0-41.7-33.9-75.6-75.6-75.6c-19.2,0-37.2,7.2-51.3,20.2h-14.3
	c-16.7,0-30.2,13.6-30.2,30.2c0,7.8,3,14.8,7.8,20.2c-6.9,0-12.9,4.7-14.6,11.4l-2.2,8.7H197v-1.3c0-7.5-5.6-13.9-13-15l-19.4-2.8
	c-6.5-0.9-12.7,2.4-15.7,8.2l-10.8,21.6c-1,2.1-1.6,4.4-1.6,6.8v62.8c0,8.1,3.1,15.7,8.9,21.4l15.5,15.5c3.8,3.8,5.9,8.9,5.9,14.2
	v75.2c0,2.8,2.3,5,5,5h45.4h201.6c2.6,0,4.8-2,5-4.7l5.1-70.9C428.8,303.9,375.2,288.8,348.1,282.4L348.1,282.4z M275.2,296.3
	l16.2,56.5l-8.1-0.9l-1.1,10l86.2,9.6v15.6H261.7l-11.8-66.9c-1.8-10.3-6.1-20.2-12.4-28.7c-4.5-6-10.5-11-17.2-14.4l-16.2-8.1
	c-1.3-0.7-2.2-1.8-2.6-3.2l-0.2-0.9l-2.9-23.4c-0.2-1.5,0.3-2.9,1.2-4c0.7-0.8,1.7-1.3,2.8-1.5c2.6,19.7,19.5,35.1,39.9,35.1
	c21.8,0,39.5-17.3,40.2-38.9c0.6,0.4,1.1,0.8,1.6,1.3c1.6,1.8,2.3,4,2.1,6.4l-3,30.4c-0.2,2.3-1.3,4.5-2.9,6.1
	C275.1,281.7,273.2,289.3,275.2,296.3L275.2,296.3z M211.8,312.2l-7-31.4l10.9,5.5c5.4,2.7,10.1,6.6,13.7,11.4
	c0.7,0.9,1.2,1.8,1.8,2.7C222,304.4,215.6,308.2,211.8,312.2z M212.1,230.9c0-16.7,13.6-30.2,30.2-30.2s30.2,13.6,30.2,30.2
	s-13.6,30.2-30.2,30.2S212.1,247.6,212.1,230.9L212.1,230.9z M281.4,221.2c-2.7-11-9.9-20.2-19.6-25.6h46v70.5h-14.1l2.5-25.1
	c0.5-5.2-1.2-10.3-4.7-14.2C288.9,223.9,285.3,222,281.4,221.2L281.4,221.2z M297.7,276.3h15.1h13.6c4,0,7.9-0.8,11.6-2.3v20.3
	c-11.5,10.1-28.8,10.1-40.3,0V276.3z M368.3,231.9c0,7.3-3.2,14.3-8.7,19.1l-23.3,12.7c-3,1.7-6.4,2.5-9.9,2.5h-8.6v-75.6
	c0-2.8-2.3-5-5-5h-41.4l-2.2-8.7c-0.1-0.5-0.3-0.9-0.5-1.4h77.6l21.9,17.5V231.9z M380.9,210.8h-2.5v-15.1h2.5
	c4.2,0,7.6,3.4,7.6,7.6S385.1,210.8,380.9,210.8z M317.9,105c36.1,0,65.5,29.4,65.5,65.5c0,5.5-0.5,10.7-1.4,15.2
	c-0.4,0-0.8-0.1-1.2-0.1h-5.8l-21.9-17.5v-22.8c0-16.7-13.6-30.2-30.2-30.2h-39.9C293.4,108.5,305.4,105,317.9,105z M252.4,125.1
	h70.5c11.1,0,20.2,9,20.2,20.2v20.2h-88.5h-2.2c-11.1,0-20.2-9-20.2-20.2C232.2,134.2,241.3,125.1,252.4,125.1z M225.1,179.3
	c0.6-2.2,2.6-3.8,4.9-3.8h22.4h2.2c2.3,0,4.3,1.6,4.9,3.8l1.6,6.3h-37.5L225.1,179.3z M222.8,195.7c-11,6.1-18.9,17.3-20.5,30.3
	c-4,0.3-7.7,2-10.3,5c-2.9,3.3-4.2,7.6-3.7,11.9l2.9,23.3h-9.4v-15.1h-0.3c3.3-3.2,5.3-7.7,5.3-12.6v-42.8h5H222.8z M167.9,295.6
	l-15.5-15.5c-3.8-3.8-5.9-8.9-5.9-14.3v-62.8c0-0.8,0.2-1.6,0.5-2.3l10.8-21.6c1-1.9,3-3,5.2-2.7l19.4,2.8c2.5,0.3,4.3,2.5,4.3,5
	v1.3h-5h-15.1v10.1h10.1v10.1h-10.1v10.1h10.1v10.1h-10.1V236h10.1v2.5c0,4.2-3.4,7.6-7.6,7.6h-2.5v10.1h2.5c0.9,0,1.7-0.1,2.5-0.3
	v15.4c0,2.8,2.3,5,5,5h16.6l13.7,61.6l1-0.2l3.5,49.5h-34.9V317C176.8,308.9,173.7,301.3,167.9,295.6L167.9,295.6z M217.1,321.7
	c0,0,0.6-4.5,19-12.4c1.8,4.1,3.1,8.4,3.8,12.8l11.5,65.1h-29.6L217.1,321.7z M414,387.2h-35.6v-40.3h-10.1v14.5l-66.1-7.3
	l-17.3-60.5c-1-3.5,0-7.3,2.6-9.9c0.1-0.1,0.2-0.2,0.2-0.3v13.1c0,1.3,0.5,2.6,1.5,3.6c7.9,7.9,18.3,11.9,28.8,11.9
	c10.4,0,20.8-4,28.8-11.9c0.9-0.9,1.5-2.2,1.5-3.6v-3.7c37.6,9.3,70.5,22.6,70.6,28.5L414,387.2z"/>
<path d="M343.1,196.9c-4.9,0-8.8,4-8.8,8.8s4,8.8,8.8,8.8s8.8-4,8.8-8.8S348,196.9,343.1,196.9z M341.8,205.8c0-0.7,0.6-1.3,1.3-1.3
	s1.3,0.6,1.3,1.3C344.4,207.1,341.8,207.1,341.8,205.8z"/>
<path d="M242.3,251.1c11.1,0,20.2-9,20.2-20.2s-9-20.2-20.2-20.2s-20.2,9-20.2,20.2S231.2,251.1,242.3,251.1z M242.3,220.9
	c5.6,0,10.1,4.5,10.1,10.1c0,5.6-4.5,10.1-10.1,10.1c-5.6,0-10.1-4.5-10.1-10.1C232.2,225.4,236.8,220.9,242.3,220.9z"/>
</svg>
